<svg width="672.5" height="700.5" viewBox="0 0 672.5 700.5" xmlns="http://www.w3.org/2000/svg">
<style>
    svg {
        font-family: SFMono-Regular,Consolas,Liberation Mono,Menlo,monospace;
        font-size: 12px;
        font-kerning: normal;
        text-rendering: optimizeLegibility;
        fill: #24292e;
    }

    rect {
        fill: #f6f8fa;
    }

    .held {
        fill: #fdd;
    }
</style>
<rect rx="6" ry="6" x="29.5" y="24.5" width="55" height="45" class="" />
<text text-anchor="middle" dominant-baseline="middle" x="57.0" y="47.0">q</text>
<rect rx="6" ry="6" x="88.5" y="24.5" width="55" height="45" class="" />
<text text-anchor="middle" dominant-baseline="middle" x="116.0" y="47.0">w</text>
<rect rx="6" ry="6" x="147.5" y="24.5" width="55" height="45" class="" />
<text text-anchor="middle" dominant-baseline="middle" x="175.0" y="47.0">f</text>
<rect rx="6" ry="6" x="206.5" y="24.5" width="55" height="45" class="" />
<text text-anchor="middle" dominant-baseline="middle" x="234.0" y="47.0">p</text>
<rect rx="6" ry="6" x="265.5" y="24.5" width="55" height="45" class="" />
<text text-anchor="middle" dominant-baseline="middle" x="293.0" y="47.0">b</text>
<rect rx="6" ry="6" x="29.5" y="73.5" width="55" height="45" class="" />
<text text-anchor="middle" dominant-baseline="middle" x="57.0" y="96.0">a</text>
<rect rx="6" ry="6" x="88.5" y="73.5" width="55" height="45" class="" />
<text text-anchor="middle" dominant-baseline="middle" x="116.0" y="96.0">r</text>
<rect rx="6" ry="6" x="147.5" y="73.5" width="55" height="45" class="" />
<text text-anchor="middle" dominant-baseline="middle" x="175.0" y="96.0">s</text>
<rect rx="6" ry="6" x="206.5" y="73.5" width="55" height="45" class="" />
<text text-anchor="middle" dominant-baseline="middle" x="234.0" y="96.0">t</text>
<rect rx="6" ry="6" x="265.5" y="73.5" width="55" height="45" class="" />
<text text-anchor="middle" dominant-baseline="middle" x="293.0" y="96.0">g</text>
<rect rx="6" ry="6" x="29.5" y="122.5" width="55" height="45" class="" />
<text text-anchor="middle" dominant-baseline="middle" x="57.0" y="145.0">z</text>
<rect rx="6" ry="6" x="88.5" y="122.5" width="55" height="45" class="" />
<text text-anchor="middle" dominant-baseline="middle" x="116.0" y="145.0">x</text>
<rect rx="6" ry="6" x="147.5" y="122.5" width="55" height="45" class="" />
<text text-anchor="middle" dominant-baseline="middle" x="175.0" y="145.0">c</text>
<rect rx="6" ry="6" x="206.5" y="122.5" width="55" height="45" class="" />
<text text-anchor="middle" dominant-baseline="middle" x="234.0" y="145.0">d</text>
<rect rx="6" ry="6" x="265.5" y="122.5" width="55" height="45" class="" />
<text text-anchor="middle" dominant-baseline="middle" x="293.0" y="145.0">v</text>
<rect rx="6" ry="6" x="352.0" y="24.5" width="55" height="45" class="" />
<text text-anchor="middle" dominant-baseline="middle" x="379.5" y="47.0">j</text>
<rect rx="6" ry="6" x="411.0" y="24.5" width="55" height="45" class="" />
<text text-anchor="middle" dominant-baseline="middle" x="438.5" y="47.0">l</text>
<rect rx="6" ry="6" x="470.0" y="24.5" width="55" height="45" class="" />
<text text-anchor="middle" dominant-baseline="middle" x="497.5" y="47.0">u</text>
<rect rx="6" ry="6" x="529.0" y="24.5" width="55" height="45" class="" />
<text text-anchor="middle" dominant-baseline="middle" x="556.5" y="47.0">y</text>
<rect rx="6" ry="6" x="588.0" y="24.5" width="55" height="45" class="" />
<text text-anchor="middle" dominant-baseline="middle" x="615.5" y="47.0">'</text>
<rect rx="6" ry="6" x="352.0" y="73.5" width="55" height="45" class="" />
<text text-anchor="middle" dominant-baseline="middle" x="379.5" y="96.0">m</text>
<rect rx="6" ry="6" x="411.0" y="73.5" width="55" height="45" class="" />
<text text-anchor="middle" dominant-baseline="middle" x="438.5" y="96.0">n</text>
<rect rx="6" ry="6" x="470.0" y="73.5" width="55" height="45" class="" />
<text text-anchor="middle" dominant-baseline="middle" x="497.5" y="96.0">e</text>
<rect rx="6" ry="6" x="529.0" y="73.5" width="55" height="45" class="" />
<text text-anchor="middle" dominant-baseline="middle" x="556.5" y="96.0">i</text>
<rect rx="6" ry="6" x="588.0" y="73.5" width="55" height="45" class="" />
<text text-anchor="middle" dominant-baseline="middle" x="615.5" y="96.0">o</text>
<rect rx="6" ry="6" x="352.0" y="122.5" width="55" height="45" class="" />
<text text-anchor="middle" dominant-baseline="middle" x="379.5" y="145.0">k</text>
<rect rx="6" ry="6" x="411.0" y="122.5" width="55" height="45" class="" />
<text text-anchor="middle" dominant-baseline="middle" x="438.5" y="145.0">h</text>
<rect rx="6" ry="6" x="470.0" y="122.5" width="55" height="45" class="" />
<text text-anchor="middle" dominant-baseline="middle" x="497.5" y="145.0">,</text>
<rect rx="6" ry="6" x="529.0" y="122.5" width="55" height="45" class="" />
<text text-anchor="middle" dominant-baseline="middle" x="556.5" y="145.0">.</text>
<rect rx="6" ry="6" x="588.0" y="122.5" width="55" height="45" class="" />
<text text-anchor="middle" dominant-baseline="middle" x="615.5" y="145.0">/</text>
<rect rx="6" ry="6" x="206.5" y="171.5" width="55" height="45" class="" />
<text text-anchor="middle" dominant-baseline="middle" x="234.0" y="194.0">shift</text>
<rect rx="6" ry="6" x="265.5" y="171.5" width="55" height="45" class="" />
<text text-anchor="middle" dominant-baseline="middle" x="293.0" y="194.0">nav</text>
<rect rx="6" ry="6" x="352.0" y="171.5" width="55" height="45" class="" />
<text text-anchor="middle" dominant-baseline="middle" x="379.5" y="194.0">space</text>
<rect rx="6" ry="6" x="411.0" y="171.5" width="55" height="45" class="" />
<text text-anchor="middle" dominant-baseline="middle" x="438.5" y="194.0">sym</text>
<rect rx="6" ry="6" x="29.5" y="243.0" width="55" height="45" class="" />
<rect rx="6" ry="6" x="88.5" y="243.0" width="55" height="45" class="" />
<text text-anchor="middle" dominant-baseline="middle" x="116.0" y="265.5">esc</text>
<rect rx="6" ry="6" x="147.5" y="243.0" width="55" height="45" class="" />
<text text-anchor="middle" dominant-baseline="middle" x="175.0" y="258.0">prev</text>
<text text-anchor="middle" dominant-baseline="middle" x="175.0" y="273.0">tab</text>
<rect rx="6" ry="6" x="206.5" y="243.0" width="55" height="45" class="" />
<text text-anchor="middle" dominant-baseline="middle" x="234.0" y="258.0">next</text>
<text text-anchor="middle" dominant-baseline="middle" x="234.0" y="273.0">tab</text>
<rect rx="6" ry="6" x="265.5" y="243.0" width="55" height="45" class="" />
<rect rx="6" ry="6" x="29.5" y="292.0" width="55" height="45" class="" />
<rect rx="6" ry="6" x="88.5" y="292.0" width="55" height="45" class="" />
<text text-anchor="middle" dominant-baseline="middle" x="116.0" y="314.5">alt</text>
<rect rx="6" ry="6" x="147.5" y="292.0" width="55" height="45" class="" />
<text text-anchor="middle" dominant-baseline="middle" x="175.0" y="314.5">ctrl</text>
<rect rx="6" ry="6" x="206.5" y="292.0" width="55" height="45" class="" />
<text text-anchor="middle" dominant-baseline="middle" x="234.0" y="314.5">super</text>
<rect rx="6" ry="6" x="265.5" y="292.0" width="55" height="45" class="" />
<rect rx="6" ry="6" x="29.5" y="341.0" width="55" height="45" class="" />
<rect rx="6" ry="6" x="88.5" y="341.0" width="55" height="45" class="" />
<text text-anchor="middle" dominant-baseline="middle" x="116.0" y="363.5">shift</text>
<rect rx="6" ry="6" x="147.5" y="341.0" width="55" height="45" class="" />
<rect rx="6" ry="6" x="206.5" y="341.0" width="55" height="45" class="" />
<rect rx="6" ry="6" x="265.5" y="341.0" width="55" height="45" class="" />
<rect rx="6" ry="6" x="352.0" y="243.0" width="55" height="45" class="" />
<text text-anchor="middle" dominant-baseline="middle" x="379.5" y="258.0">page</text>
<text text-anchor="middle" dominant-baseline="middle" x="379.5" y="273.0">up</text>
<rect rx="6" ry="6" x="411.0" y="243.0" width="55" height="45" class="" />
<text text-anchor="middle" dominant-baseline="middle" x="438.5" y="265.5">tab</text>
<rect rx="6" ry="6" x="470.0" y="243.0" width="55" height="45" class="" />
<text text-anchor="middle" dominant-baseline="middle" x="497.5" y="265.5">up</text>
<rect rx="6" ry="6" x="529.0" y="243.0" width="55" height="45" class="" />
<text text-anchor="middle" dominant-baseline="middle" x="556.5" y="265.5">enter</text>
<rect rx="6" ry="6" x="588.0" y="243.0" width="55" height="45" class="" />
<rect rx="6" ry="6" x="352.0" y="292.0" width="55" height="45" class="" />
<text text-anchor="middle" dominant-baseline="middle" x="379.5" y="307.0">page</text>
<text text-anchor="middle" dominant-baseline="middle" x="379.5" y="322.0">down</text>
<rect rx="6" ry="6" x="411.0" y="292.0" width="55" height="45" class="" />
<text text-anchor="middle" dominant-baseline="middle" x="438.5" y="314.5">left</text>
<rect rx="6" ry="6" x="470.0" y="292.0" width="55" height="45" class="" />
<text text-anchor="middle" dominant-baseline="middle" x="497.5" y="314.5">down</text>
<rect rx="6" ry="6" x="529.0" y="292.0" width="55" height="45" class="" />
<text text-anchor="middle" dominant-baseline="middle" x="556.5" y="314.5">right</text>
<rect rx="6" ry="6" x="588.0" y="292.0" width="55" height="45" class="" />
<text text-anchor="middle" dominant-baseline="middle" x="615.5" y="314.5">home</text>
<rect rx="6" ry="6" x="352.0" y="341.0" width="55" height="45" class="" />
<rect rx="6" ry="6" x="411.0" y="341.0" width="55" height="45" class="" />
<text text-anchor="middle" dominant-baseline="middle" x="438.5" y="356.0">word</text>
<text text-anchor="middle" dominant-baseline="middle" x="438.5" y="371.0">left</text>
<rect rx="6" ry="6" x="470.0" y="341.0" width="55" height="45" class="" />
<text text-anchor="middle" dominant-baseline="middle" x="497.5" y="356.0">word</text>
<text text-anchor="middle" dominant-baseline="middle" x="497.5" y="371.0">bspc</text>
<rect rx="6" ry="6" x="529.0" y="341.0" width="55" height="45" class="" />
<text text-anchor="middle" dominant-baseline="middle" x="556.5" y="356.0">word</text>
<text text-anchor="middle" dominant-baseline="middle" x="556.5" y="371.0">right</text>
<rect rx="6" ry="6" x="588.0" y="341.0" width="55" height="45" class="" />
<text text-anchor="middle" dominant-baseline="middle" x="615.5" y="363.5">end</text>
<rect rx="6" ry="6" x="206.5" y="390.0" width="55" height="45" class="" />
<rect rx="6" ry="6" x="265.5" y="390.0" width="55" height="45" class="held" />
<text text-anchor="middle" dominant-baseline="middle" x="293.0" y="412.5">nav</text>
<rect rx="6" ry="6" x="352.0" y="390.0" width="55" height="45" class="" />
<text text-anchor="middle" dominant-baseline="middle" x="379.5" y="412.5">bspc</text>
<rect rx="6" ry="6" x="411.0" y="390.0" width="55" height="45" class="" />
<text text-anchor="middle" dominant-baseline="middle" x="438.5" y="412.5">delete</text>
<rect rx="6" ry="6" x="29.5" y="461.5" width="55" height="45" class="" />
<rect rx="6" ry="6" x="88.5" y="461.5" width="55" height="45" class="" />
<text text-anchor="middle" dominant-baseline="middle" x="116.0" y="484.0">-</text>
<rect rx="6" ry="6" x="147.5" y="461.5" width="55" height="45" class="" />
<text text-anchor="middle" dominant-baseline="middle" x="175.0" y="484.0">6</text>
<rect rx="6" ry="6" x="206.5" y="461.5" width="55" height="45" class="" />
<text text-anchor="middle" dominant-baseline="middle" x="234.0" y="484.0">`</text>
<rect rx="6" ry="6" x="265.5" y="461.5" width="55" height="45" class="" />
<rect rx="6" ry="6" x="29.5" y="510.5" width="55" height="45" class="" />
<text text-anchor="middle" dominant-baseline="middle" x="57.0" y="533.0">7</text>
<rect rx="6" ry="6" x="88.5" y="510.5" width="55" height="45" class="" />
<text text-anchor="middle" dominant-baseline="middle" x="116.0" y="533.0">8</text>
<rect rx="6" ry="6" x="147.5" y="510.5" width="55" height="45" class="" />
<text text-anchor="middle" dominant-baseline="middle" x="175.0" y="533.0">9</text>
<rect rx="6" ry="6" x="206.5" y="510.5" width="55" height="45" class="" />
<text text-anchor="middle" dominant-baseline="middle" x="234.0" y="533.0">0</text>
<rect rx="6" ry="6" x="265.5" y="510.5" width="55" height="45" class="" />
<rect rx="6" ry="6" x="29.5" y="559.5" width="55" height="45" class="" />
<text text-anchor="middle" dominant-baseline="middle" x="57.0" y="582.0">=</text>
<rect rx="6" ry="6" x="88.5" y="559.5" width="55" height="45" class="" />
<text text-anchor="middle" dominant-baseline="middle" x="116.0" y="582.0">\</text>
<rect rx="6" ry="6" x="147.5" y="559.5" width="55" height="45" class="" />
<text text-anchor="middle" dominant-baseline="middle" x="175.0" y="582.0">:</text>
<rect rx="6" ry="6" x="206.5" y="559.5" width="55" height="45" class="" />
<text text-anchor="middle" dominant-baseline="middle" x="234.0" y="582.0">;</text>
<rect rx="6" ry="6" x="265.5" y="559.5" width="55" height="45" class="" />
<rect rx="6" ry="6" x="352.0" y="461.5" width="55" height="45" class="" />
<rect rx="6" ry="6" x="411.0" y="461.5" width="55" height="45" class="" />
<text text-anchor="middle" dominant-baseline="middle" x="438.5" y="484.0">[</text>
<rect rx="6" ry="6" x="470.0" y="461.5" width="55" height="45" class="" />
<text text-anchor="middle" dominant-baseline="middle" x="497.5" y="484.0">5</text>
<rect rx="6" ry="6" x="529.0" y="461.5" width="55" height="45" class="" />
<text text-anchor="middle" dominant-baseline="middle" x="556.5" y="484.0">]</text>
<rect rx="6" ry="6" x="588.0" y="461.5" width="55" height="45" class="" />
<rect rx="6" ry="6" x="352.0" y="510.5" width="55" height="45" class="" />
<rect rx="6" ry="6" x="411.0" y="510.5" width="55" height="45" class="" />
<text text-anchor="middle" dominant-baseline="middle" x="438.5" y="533.0">1</text>
<rect rx="6" ry="6" x="470.0" y="510.5" width="55" height="45" class="" />
<text text-anchor="middle" dominant-baseline="middle" x="497.5" y="533.0">2</text>
<rect rx="6" ry="6" x="529.0" y="510.5" width="55" height="45" class="" />
<text text-anchor="middle" dominant-baseline="middle" x="556.5" y="533.0">3</text>
<rect rx="6" ry="6" x="588.0" y="510.5" width="55" height="45" class="" />
<text text-anchor="middle" dominant-baseline="middle" x="615.5" y="533.0">4</text>
<rect rx="6" ry="6" x="352.0" y="559.5" width="55" height="45" class="" />
<rect rx="6" ry="6" x="411.0" y="559.5" width="55" height="45" class="" />
<rect rx="6" ry="6" x="470.0" y="559.5" width="55" height="45" class="" />
<rect rx="6" ry="6" x="529.0" y="559.5" width="55" height="45" class="" />
<rect rx="6" ry="6" x="588.0" y="559.5" width="55" height="45" class="" />
<rect rx="6" ry="6" x="206.5" y="608.5" width="55" height="45" class="" />
<text text-anchor="middle" dominant-baseline="middle" x="234.0" y="631.0">shift</text>
<rect rx="6" ry="6" x="265.5" y="608.5" width="55" height="45" class="" />
<rect rx="6" ry="6" x="352.0" y="608.5" width="55" height="45" class="" />
<rect rx="6" ry="6" x="411.0" y="608.5" width="55" height="45" class="held" />
<text text-anchor="middle" dominant-baseline="middle" x="438.5" y="631.0">sym</text>
</svg>
